<?xml version="1.0" standalone="no"?>
<!DOCTYPE svg PUBLIC "-//W3C//DTD SVG 20010904//EN"
 "http://www.w3.org/TR/2001/REC-SVG-20010904/DTD/svg10.dtd">
<svg version="1.0" xmlns="http://www.w3.org/2000/svg"
 width="800.000000pt" height="633.000000pt" viewBox="0 0 800.000000 633.000000"
 preserveAspectRatio="xMidYMid meet">

<g transform="translate(0.000000,633.000000) scale(0.100000,-0.100000)"
fill="#000000" stroke="none">
<path d="M3657 6300 c-259 -11 -625 -36 -822 -56 -376 -38 -831 -102 -923
-129 l-49 -15 -6 -197 c-14 -400 -2 -1126 23 -1508 21 -311 62 -765 80 -895
37 -266 93 -483 169 -659 l40 -91 -58 0 c-117 0 -248 -58 -335 -149 -65 -69
-88 -127 -64 -163 9 -13 84 -102 168 -198 l152 -175 -6 -95 c-11 -187 -71
-341 -178 -456 l-58 -62 -242 5 c-193 4 -258 2 -314 -10 -126 -27 -210 -81
-241 -156 -8 -18 -17 -80 -20 -137 -3 -57 -7 -104 -8 -104 -2 0 -45 9 -96 19
-236 49 -500 66 -612 41 -114 -25 -179 -69 -214 -146 -22 -48 -25 -75 -34
-253 -7 -129 -7 -245 -1 -330 9 -116 13 -136 36 -171 55 -84 188 -152 361
-186 134 -27 443 -25 630 4 427 66 820 232 1134 478 52 41 100 74 106 74 7 0
97 -18 201 -41 599 -129 1179 -177 1834 -150 507 21 762 55 1326 177 l81 18
84 -66 c216 -168 468 -303 724 -387 468 -154 973 -172 1252 -45 94 42 138 77
171 133 l27 46 0 300 c0 338 -6 379 -61 443 -73 86 -156 113 -350 113 -131 0
-270 -16 -443 -52 -52 -10 -96 -18 -98 -15 -2 2 -7 53 -12 113 -9 126 -23 159
-89 210 -24 18 -73 43 -110 55 -63 22 -82 23 -346 23 l-279 0 -54 60 c-60 66
-124 187 -149 280 -8 33 -18 108 -21 166 l-6 107 162 186 c174 202 179 211
145 282 -23 47 -113 126 -188 163 -71 35 -132 50 -198 51 -27 0 -48 3 -48 8 0
4 18 50 41 102 113 261 165 547 213 1170 46 578 48 635 52 1351 4 578 3 708
-8 717 -29 24 -340 74 -788 126 -539 63 -1231 94 -1683 76z m338 -135 l0 -40
-70 -8 c-86 -9 -161 -44 -209 -97 -32 -36 -45 -60 -31 -60 3 0 23 13 45 29 22
16 63 35 91 41 57 14 152 6 168 -14 8 -9 11 -85 9 -232 -3 -211 -4 -219 -23
-222 -41 -6 -57 20 -65 104 -7 85 -15 107 -52 140 -78 71 -259 50 -303 -36
-12 -22 -15 -69 -15 -199 0 -179 -5 -201 -49 -201 -41 0 -49 20 -53 145 -5
132 -16 165 -67 208 -55 46 -123 62 -261 62 -143 0 -216 -18 -283 -69 -87 -67
-81 -34 -87 -513 l-5 -425 -28 -24 c-15 -13 -34 -24 -42 -24 -23 0 -45 30 -45
62 0 39 -21 32 -37 -13 -27 -75 12 -168 88 -210 23 -13 41 -27 41 -31 -1 -5
-2 -27 -2 -49 l0 -42 -49 6 c-90 11 -157 60 -193 142 -10 23 -14 170 -18 640
-5 570 -6 612 -24 648 -30 61 -69 82 -151 82 -52 -1 -81 -6 -112 -23 -146 -77
-198 -222 -111 -309 40 -40 107 -55 148 -33 l24 13 -30 14 c-58 30 -69 71 -33
117 26 33 88 37 119 6 20 -20 20 -33 20 -555 0 -533 0 -535 -20 -535 -12 0
-34 -7 -50 -15 -83 -43 -105 -162 -43 -235 34 -42 45 -38 38 13 -6 46 -1 58
32 76 41 21 72 14 91 -21 9 -18 40 -55 67 -83 57 -57 120 -84 217 -92 84 -7
87 -10 79 -75 -1 -4 -9 -9 -20 -13 -32 -10 -93 -78 -118 -132 -39 -85 -48
-164 -34 -323 12 -150 35 -286 56 -336 l13 -31 63 14 c84 18 279 20 349 3 58
-14 125 -43 135 -60 15 -25 -9 -27 -53 -4 -158 82 -514 40 -698 -82 -57 -38
-89 -74 -119 -133 -26 -52 -16 -164 23 -264 34 -89 92 -189 105 -184 5 1 10
35 12 74 5 165 139 315 344 385 76 26 220 31 259 10 27 -15 31 -48 5 -37 -73
28 -202 20 -281 -17 -42 -21 -47 -26 -44 -53 5 -58 69 -171 124 -219 141 -123
337 -166 757 -166 l219 0 36 -42 c56 -65 86 -133 86 -195 0 -44 -5 -58 -30
-87 -49 -55 -83 -66 -207 -66 -172 0 -206 19 -187 104 13 63 79 156 111 156 7
0 13 4 13 9 0 19 -37 21 -95 5 -125 -32 -195 -99 -217 -206 -13 -64 -7 -59
-112 -78 -116 -20 -166 -73 -166 -174 0 -76 24 -129 78 -178 38 -34 104 -59
119 -44 3 3 -10 21 -30 41 -19 19 -38 47 -42 63 -13 61 35 116 97 110 32 -3
33 -4 40 -60 13 -107 79 -205 172 -258 46 -27 86 -38 86 -25 0 3 -17 22 -38
43 -45 45 -67 110 -67 199 0 84 18 103 96 103 51 0 63 -4 94 -31 70 -61 82
-116 35 -151 -37 -27 -39 -42 -2 -33 85 21 141 80 151 158 l6 42 80 0 80 0 3
-338 3 -337 -30 0 c-87 0 -340 110 -571 247 -334 200 -643 459 -866 728 -128
155 -267 377 -331 528 -112 265 -160 529 -207 1142 -43 549 -50 727 -50 1358
-1 577 0 609 17 622 21 15 123 35 362 69 512 74 1141 125 1515 122 l155 -1 0
-40z m1305 -30 c53 -7 140 -34 140 -43 0 -4 -51 -7 -112 -7 -107 0 -116 -2
-180 -33 -118 -58 -238 -190 -238 -264 0 -25 3 -28 35 -28 19 0 106 23 194 50
88 28 165 50 171 50 22 0 -22 -60 -67 -92 -27 -18 -114 -62 -194 -99 -80 -37
-164 -78 -186 -92 -52 -33 -86 -88 -87 -141 l-1 -41 53 2 c64 3 205 49 324
106 l89 43 -6 -25 c-3 -14 -18 -43 -32 -64 -49 -71 -135 -126 -331 -213 -70
-31 -142 -65 -160 -76 -59 -36 -112 -159 -79 -186 36 -30 272 55 429 154 43
28 48 29 48 12 0 -38 -65 -143 -131 -213 -121 -127 -299 -231 -495 -290 -184
-56 -281 -89 -377 -131 -55 -24 -101 -44 -103 -44 -2 0 -4 47 -4 105 l0 105
63 31 c145 73 249 169 311 289 18 36 59 144 90 242 183 574 402 861 686 898
55 7 63 6 150 -5z m-1161 -49 c64 -33 135 -113 161 -184 18 -47 21 -73 18
-148 -3 -81 -8 -100 -40 -165 -21 -41 -58 -97 -83 -126 -44 -51 -157 -133
-182 -133 -10 0 -13 29 -13 113 l1 112 43 26 c95 58 137 226 83 330 -15 29
-41 56 -75 79 -51 33 -52 35 -52 83 l0 50 45 -6 c25 -4 67 -18 94 -31z m1529
-102 c70 -60 116 -183 142 -379 6 -44 15 -84 20 -89 11 -11 88 37 97 59 12 32
23 12 23 -40 0 -67 -24 -119 -75 -164 l-36 -32 10 -106 c6 -59 11 -141 11
-184 0 -111 17 -119 106 -52 17 12 34 23 39 23 12 0 -5 -92 -25 -131 -17 -32
-49 -64 -109 -109 -18 -14 -20 -28 -23 -195 -3 -207 -2 -210 76 -150 25 19 49
35 52 35 12 0 -6 -90 -25 -128 -21 -41 -77 -96 -108 -106 -16 -5 -22 -30 -40
-179 -13 -108 -17 -176 -11 -184 11 -14 55 -3 103 27 39 24 40 20 24 -45 -15
-59 -78 -131 -129 -146 -38 -12 -39 -13 -55 -88 -9 -42 -28 -120 -42 -173 -13
-54 -22 -102 -18 -108 10 -16 42 -12 86 11 23 11 43 18 46 15 8 -8 -24 -87
-45 -111 -31 -36 -74 -65 -114 -75 -36 -10 -41 -16 -79 -98 -22 -48 -61 -120
-86 -161 -44 -71 -46 -74 -27 -88 12 -9 37 -13 72 -11 28 2 52 0 52 -4 0 -4
-16 -23 -36 -42 -50 -49 -110 -70 -181 -64 -53 5 -61 3 -95 -24 -91 -71 -221
-104 -314 -78 -64 18 -173 121 -211 198 -57 116 -31 227 79 334 107 106 204
142 276 104 39 -20 109 -96 122 -131 44 -116 -30 -241 -149 -253 -64 -6 -101
15 -101 58 0 38 24 60 64 60 38 0 86 33 86 58 0 30 -39 81 -66 88 -72 18 -203
-107 -204 -196 0 -14 11 -48 24 -77 34 -72 89 -108 165 -107 130 2 262 127
367 348 37 78 41 120 18 195 -7 25 0 26 49 6 14 -6 17 -2 17 26 -1 19 -7 52
-15 74 -17 46 -9 60 28 46 18 -7 28 -7 32 0 10 14 -4 84 -20 106 -22 27 -18
33 20 33 42 0 44 14 15 79 -11 24 -20 46 -20 48 0 3 18 3 39 -1 l39 -6 16 68
c17 79 42 223 52 305 4 39 3 57 -5 57 -6 0 -11 -7 -11 -15 0 -22 -37 -93 -71
-136 -24 -31 -29 -46 -29 -92 0 -53 -15 -107 -30 -107 -4 0 -12 11 -18 25 -19
40 -42 32 -42 -15 0 -44 -23 -110 -39 -110 -5 0 -13 9 -16 20 -3 11 -15 25
-26 30 -17 10 -19 7 -20 -27 0 -21 -5 -53 -12 -72 -12 -36 -37 -54 -37 -27 0
16 -37 46 -57 46 -8 0 -13 -12 -13 -30 0 -37 -21 -90 -43 -109 -15 -11 -17
-11 -17 1 0 15 -47 65 -53 57 -2 -2 -10 -26 -17 -52 -13 -48 -44 -97 -61 -97
-5 0 -9 13 -9 29 0 24 -21 61 -34 61 -2 0 -51 -22 -109 -50 -144 -68 -150 -76
-212 -310 -51 -190 -142 -332 -254 -398 -52 -30 -161 -62 -213 -62 l-38 0 21
-42 c58 -114 6 -255 -126 -340 l-60 -39 230 3 c219 3 232 4 278 27 28 13 57
37 68 55 21 34 25 99 9 142 -27 69 40 20 80 -59 50 -100 37 -222 -31 -287 -53
-50 -101 -62 -293 -71 -100 -4 -223 -5 -273 -2 l-93 6 0 532 0 533 138 4 c189
7 263 37 338 140 44 59 41 76 -7 44 -63 -43 -132 -57 -306 -63 l-163 -6 0 72
c0 62 2 71 18 71 41 0 179 42 251 76 150 73 225 180 237 342 11 139 42 211
111 253 49 31 40 52 -25 60 -61 8 -86 27 -103 76 -23 72 16 196 83 260 52 49
58 47 62 -27 8 -155 92 -238 199 -196 42 16 184 143 173 154 -4 3 -26 5 -51 3
-55 -2 -80 10 -101 51 -33 64 -11 199 40 251 25 25 33 21 41 -20 9 -49 41
-110 72 -139 28 -26 85 -32 125 -13 26 12 153 167 144 176 -3 4 -24 1 -45 -6
-30 -8 -45 -9 -65 0 -29 14 -56 64 -56 107 0 54 45 152 69 152 4 0 12 -19 18
-42 14 -54 59 -97 106 -105 32 -5 40 -1 64 24 34 37 117 182 109 190 -3 4 -24
1 -46 -6 -33 -10 -45 -9 -69 3 -52 28 -76 134 -48 215 17 48 31 48 52 1 27
-60 77 -100 124 -100 23 0 44 7 54 18 14 16 87 186 87 204 0 13 -24 9 -58 -8
-39 -19 -63 -12 -96 27 -32 37 -50 102 -43 153 8 58 20 61 54 13 57 -81 140
-96 187 -34 19 26 21 42 21 165 -1 149 -15 221 -61 293 -30 48 -20 49 34 3z
m-2561 -467 c8 -8 18 -35 20 -60 5 -39 2 -47 -16 -57 -13 -6 -35 -8 -52 -5
-55 12 -30 -45 31 -69 53 -21 102 -20 131 3 19 15 24 31 28 96 6 81 20 105 54
92 19 -7 33 -150 22 -233 -15 -122 16 -202 95 -241 95 -49 212 -18 257 67 21
40 23 55 23 209 0 135 3 171 16 189 28 40 86 23 110 -33 20 -49 18 -79 -12
-137 -14 -28 -22 -54 -17 -58 7 -6 84 5 171 25 l32 8 0 -311 c0 -236 -3 -312
-12 -319 -7 -6 -63 -32 -124 -60 -190 -85 -316 -187 -348 -279 -25 -73 -39
-208 -34 -326 4 -94 8 -114 34 -165 56 -110 162 -160 364 -171 l115 -7 3 -127
c2 -121 2 -127 -19 -139 -33 -17 -367 -6 -444 15 -164 45 -307 154 -367 282
-30 62 -33 78 -32 159 0 104 13 142 70 205 42 47 81 70 118 70 14 0 27 4 30 9
11 17 -64 70 -127 90 -82 25 -245 45 -312 38 -61 -6 -60 -8 -70 83 -9 74 9
208 36 270 37 86 133 147 197 124 64 -23 95 -133 51 -188 -31 -39 -70 -35
-108 11 l-31 38 0 -43 c0 -119 94 -192 231 -179 113 10 213 89 270 212 27 58
34 84 37 155 3 72 0 90 -17 118 -27 42 -41 41 -41 -5 -1 -84 -67 -171 -139
-180 -48 -7 -82 12 -111 59 -23 38 -18 48 21 48 57 0 92 29 113 94 14 41 -37
156 -70 156 -10 0 -14 -13 -14 -45 0 -77 -57 -109 -114 -64 -49 38 -22 100 57
133 23 9 -16 26 -61 26 -55 0 -103 -20 -131 -56 -30 -38 -25 -113 10 -150 20
-21 21 -27 9 -34 -34 -22 -89 -14 -120 16 l-25 24 -3 293 -3 293 23 22 c44 40
158 46 195 9z m892 -1130 l2 -64 -58 -34 c-71 -42 -114 -106 -121 -180 -6 -65
13 -64 45 2 27 56 63 89 99 92 l29 2 3 -152 c3 -138 2 -152 -15 -161 -28 -13
-203 2 -240 22 -51 26 -67 67 -67 166 1 168 59 257 219 334 49 25 93 43 96 40
3 -2 7 -32 8 -67z m228 -88 c86 -42 118 -127 111 -297 -6 -128 -27 -182 -96
-242 -46 -41 -102 -62 -195 -75 l-48 -6 3 103 3 103 48 7 c92 13 137 65 137
161 0 83 -20 123 -72 147 -24 11 -60 20 -81 20 l-38 0 3 47 c3 40 7 48 28 55
42 12 150 0 197 -23z m-1347 -197 c43 -21 80 -75 80 -116 0 -75 -67 -139 -144
-139 -55 0 -100 27 -127 78 -62 116 70 238 191 177z m1115 -897 l0 -50 -210
-5 c-222 -5 -250 -11 -260 -53 -14 -53 38 -109 113 -123 17 -3 32 -11 32 -17
0 -17 -155 -1 -192 20 -119 69 -98 223 37 271 19 7 115 10 255 9 l225 -2 0
-50z m-1813 -523 c16 -7 438 -554 438 -569 0 -4 -30 -8 -68 -9 -89 0 -153 -33
-241 -124 l-67 -68 -235 270 c-128 148 -238 275 -243 283 -27 39 111 164 223
202 64 22 158 29 193 15z m3849 -29 c99 -47 189 -129 189 -173 0 -14 -120
-157 -451 -537 l-28 -32 -78 78 c-92 92 -161 125 -250 119 -29 -2 -52 0 -51 4
7 17 424 561 438 569 8 5 49 8 91 6 58 -3 90 -10 140 -34z m-3375 -624 c34
-16 49 -32 68 -72 70 -143 58 -344 -33 -557 -50 -119 -46 -116 -143 -101 -278
42 -655 116 -671 131 -5 4 14 36 43 71 90 112 143 253 166 444 l6 50 36 -40
c87 -97 114 -125 122 -125 5 0 32 29 60 64 110 140 235 189 346 135z m2862 1
c48 -22 137 -102 177 -160 15 -22 34 -40 41 -40 7 0 43 35 80 78 37 42 71 79
76 80 4 2 8 -14 8 -35 0 -70 38 -225 74 -299 37 -78 78 -142 120 -186 14 -15
26 -29 26 -32 0 -6 -56 -22 -169 -46 -111 -24 -551 -100 -580 -100 -18 0 -30
17 -66 93 -104 219 -117 457 -32 596 40 66 157 91 245 51z m-2635 -138 c236
-197 566 -406 784 -498 135 -57 285 -104 329 -104 53 0 294 83 415 143 216
107 504 295 689 450 45 38 84 67 86 65 2 -2 -4 -26 -13 -53 -10 -33 -15 -87
-15 -160 0 -127 21 -221 78 -349 20 -45 38 -88 41 -97 4 -14 -17 -20 -135 -38
-196 -31 -469 -67 -662 -88 -230 -24 -737 -25 -975 0 -161 17 -796 105 -802
111 -2 2 15 41 36 87 68 145 86 224 85 379 0 101 -4 146 -17 178 -9 23 -14 42
-11 42 3 0 42 -31 87 -68z m-1213 -497 c57 -4 134 -13 170 -21 36 -8 113 -25
173 -38 59 -13 118 -31 131 -39 36 -24 70 -103 74 -172 2 -34 -3 -106 -12
-162 -19 -117 -20 -164 -5 -215 15 -56 39 -50 39 10 0 27 9 97 20 157 29 160
26 232 -14 325 -3 9 -1 23 6 32 12 15 34 13 268 -27 212 -37 658 -105 684
-105 4 0 -6 -20 -23 -43 -39 -57 -44 -80 -33 -152 8 -47 6 -70 -6 -108 -13
-39 -13 -55 -4 -81 18 -49 15 -61 -28 -111 -42 -49 -49 -75 -25 -95 12 -10 18
-6 36 24 11 20 27 36 35 36 20 0 28 -44 14 -84 -10 -33 -15 -36 -48 -36 -88 0
-446 64 -742 132 -96 22 -235 53 -308 68 -73 15 -136 31 -140 34 -3 4 -1 84 6
179 14 204 10 247 -24 247 -23 0 -24 -4 -24 -62 0 -35 -7 -110 -15 -168 -8
-58 -15 -125 -15 -149 0 -40 -2 -43 -22 -38 -58 15 -303 28 -398 22 -149 -9
-305 -33 -364 -56 -28 -10 -53 -19 -55 -19 -8 0 11 527 21 564 22 85 120 140
277 155 84 8 133 8 351 -4z m5086 -11 c85 -18 155 -60 178 -108 12 -26 18 -95
27 -311 6 -152 8 -279 5 -282 -3 -3 -27 4 -53 15 -124 53 -528 74 -750 38 -57
-9 -107 -16 -112 -16 -5 0 -11 26 -14 58 -2 31 -11 101 -18 154 -7 54 -10 101
-6 105 4 3 26 9 50 12 37 5 42 9 42 31 0 23 -4 25 -57 28 l-57 3 -11 42 c-21
82 -32 108 -47 114 -32 12 -38 -14 -20 -88 10 -40 15 -74 12 -77 -5 -5 -58
-26 -96 -39 -13 -4 -18 4 -24 36 -8 49 -18 57 -77 66 -55 8 -63 27 -20 47 20
10 28 22 30 46 4 36 -3 33 137 58 50 8 133 26 185 39 133 32 166 37 325 45
169 8 276 4 371 -16z m-1066 -114 c0 -5 -9 -10 -20 -10 -11 0 -20 5 -20 10 0
6 9 10 20 10 11 0 20 -4 20 -10z m-90 -14 c0 -16 -14 -36 -26 -36 -8 0 -14 2
-14 4 0 2 -3 11 -6 20 -5 12 0 16 20 16 14 0 26 -2 26 -4z m-110 -25 c0 -27
27 -51 56 -51 33 0 31 -22 -7 -59 -26 -27 -29 -35 -23 -68 14 -76 30 -93 92
-93 48 0 57 -18 12 -27 -17 -3 -33 -10 -36 -15 -12 -19 11 -27 51 -18 24 5 44
5 49 0 11 -11 -23 -26 -76 -35 -30 -5 -38 -10 -38 -27 0 -20 3 -20 71 -14 78
8 86 -3 22 -29 -20 -8 -33 -20 -30 -27 6 -18 61 -12 109 13 23 12 44 17 49 12
10 -10 31 -114 25 -121 -8 -7 -424 -100 -568 -126 -76 -14 -208 -35 -295 -46
-87 -11 -177 -22 -200 -25 l-41 -6 -11 49 c-17 79 -50 160 -86 207 l-34 44 50
56 c60 65 79 70 79 20 0 -24 6 -37 20 -45 33 -18 43 -3 36 54 -13 114 -86 196
-181 204 -45 4 -55 8 -55 23 0 10 5 21 10 24 6 4 116 20 244 36 129 17 337 47
463 68 125 21 231 39 236 40 4 0 7 -8 7 -18z m235 -111 c0 -8 -10 -16 -22 -18
-22 -3 -32 16 -16 32 12 11 38 2 38 -14z m-2307 -6 c71 -6 82 -9 76 -23 -3 -9
-9 -48 -13 -87 -7 -77 -24 -112 -47 -93 -7 6 -23 9 -36 7 -17 -2 -23 -10 -23
-28 0 -20 9 -29 43 -44 35 -16 42 -24 42 -48 0 -17 -12 -41 -29 -60 l-29 -33
-29 21 c-64 46 -87 140 -62 254 10 45 8 55 -10 91 -24 45 -20 63 13 55 11 -2
58 -8 104 -12z m2212 -14 c0 -24 -26 -38 -42 -22 -8 8 -8 15 2 27 18 21 40 19
40 -5z m-1640 -15 c124 0 280 4 348 8 l122 8 0 -24 c0 -28 -17 -47 -43 -47
-53 0 -117 -120 -117 -221 0 -60 7 -79 31 -79 14 0 19 7 19 29 0 41 12 45 69
26 71 -23 76 -33 55 -97 -9 -29 -20 -93 -23 -143 l-6 -90 -170 -8 c-300 -14
-1012 11 -1043 36 -7 6 -12 24 -10 41 3 33 15 37 70 21 58 -15 49 61 -12 103
-44 31 -45 32 -27 56 13 17 15 17 46 1 88 -45 192 -22 206 47 4 18 16 71 27
118 19 83 21 171 3 213 -7 17 -1 18 111 10 66 -4 220 -8 344 -8z m-3300 -45
c74 -11 166 -28 205 -37 l69 -18 1 -195 c1 -120 5 -211 13 -236 27 -90 83
-109 300 -99 132 6 156 5 177 -9 29 -19 32 -51 9 -84 -22 -32 -58 -43 -136
-43 -92 0 -159 13 -400 77 -263 70 -440 97 -608 92 -118 -3 -130 -5 -190 -35
-36 -17 -67 -30 -69 -27 -3 2 0 111 6 242 11 261 14 274 78 331 20 17 39 31
43 31 4 1 30 7 57 15 75 21 286 18 445 -5z m2574 -2 c22 -30 20 -51 -5 -74
-21 -19 -21 -18 -40 5 -22 27 -24 44 -7 71 17 26 33 25 52 -2z m2480 16 c9 -3
16 -12 16 -19 0 -16 -35 -29 -50 -20 -14 9 -13 32 3 38 6 3 13 6 14 6 1 1 8
-2 17 -5z m2043 -23 c113 -50 125 -82 131 -378 2 -128 2 -233 -1 -233 -3 0
-22 11 -42 24 -49 33 -116 46 -243 46 -148 0 -318 -29 -596 -100 -328 -84
-445 -93 -501 -40 -27 26 -35 83 -12 97 6 4 98 8 202 8 174 0 193 2 225 21 60
35 65 54 68 296 l4 217 49 10 c63 14 263 49 309 55 19 2 107 3 195 2 143 -2
166 -4 212 -25z m-2149 -14 c5 -22 -24 -33 -44 -16 -14 12 -14 14 2 26 22 16
38 12 42 -10z m192 -7 c14 -7 34 -7 66 1 37 10 48 9 54 -1 11 -17 40 -208 40
-259 0 -39 -1 -40 -37 -46 -21 -4 -45 -9 -53 -11 -12 -3 -19 15 -33 82 -10 48
-29 109 -43 135 -22 45 -27 49 -60 49 -43 0 -43 23 0 28 15 2 30 10 33 18 6
17 9 17 33 4z m-1199 -23 c19 -12 34 -28 34 -34 0 -6 -30 -42 -67 -80 l-67
-70 -75 25 c-76 24 -88 37 -67 70 6 10 11 10 21 -3 20 -24 65 -45 97 -45 36 0
69 23 88 60 31 61 9 68 -46 14 -28 -27 -42 -34 -58 -29 -27 8 -55 50 -47 70 8
21 23 19 29 -6 4 -15 12 -20 29 -17 18 2 24 10 26 36 3 29 6 32 36 32 18 0 48
-10 67 -23z m-1365 -193 c14 -56 -27 -82 -63 -40 -29 34 -29 60 -1 88 l21 21
19 -23 c10 -12 21 -33 24 -46z m-1791 -128 c8 -18 17 -64 21 -101 l7 -67 -34
8 c-19 5 -110 8 -204 6 -186 -3 -212 3 -229 51 -20 56 51 95 219 116 208 28
203 28 220 -13z m368 8 c131 -20 347 -66 347 -73 0 -3 -43 -37 -94 -76 -380
-282 -837 -441 -1326 -461 -230 -10 -407 15 -538 76 -136 63 -181 133 -135
210 69 117 348 113 813 -10 228 -60 333 -80 420 -80 105 0 162 27 196 92 32
62 36 214 9 322 l-8 29 112 -7 c62 -4 153 -14 204 -22z m4612 9 c-34 -90 -31
-256 7 -332 37 -73 69 -86 213 -85 114 1 133 4 375 67 335 86 545 116 679 97
86 -12 127 -32 158 -80 32 -47 29 -79 -11 -126 -189 -221 -901 -216 -1463 10
-200 80 -358 168 -525 293 -77 57 -103 83 -82 83 4 0 72 14 153 31 164 34 332
56 435 58 61 1 67 -1 61 -16z m314 -9 c55 -9 112 -24 135 -37 35 -19 41 -28
44 -59 3 -33 -1 -39 -28 -53 -26 -14 -61 -16 -208 -13 -97 2 -187 -1 -199 -5
-22 -8 -23 -6 -23 40 0 52 16 120 33 141 12 15 87 10 246 -14z m-2178 -14 c10
-14 28 -60 41 -103 27 -93 24 -97 -69 -97 -72 0 -70 -5 -53 111 17 121 40 146
81 89z"/>
<path d="M2385 3717 c-129 -52 -189 -101 -223 -180 -25 -58 -11 -287 18 -287
3 0 16 20 28 45 49 100 156 177 267 190 64 8 63 4 40 155 -8 52 -15 98 -15
103 0 14 -36 6 -115 -26z"/>
<path d="M5687 5103 c-15 -54 -45 -136 -67 -182 l-40 -83 25 -30 c34 -40 32
-58 -5 -58 -17 0 -44 -7 -59 -15 l-29 -14 18 -38 c39 -81 38 -82 -28 -76 -72
7 -80 -2 -52 -56 26 -51 27 -86 3 -76 -36 14 -81 17 -101 6 -20 -11 -20 -11 4
-68 35 -85 32 -96 -16 -68 -28 16 -88 19 -108 6 -12 -7 -11 -14 2 -39 18 -34
36 -109 29 -116 -3 -3 -20 6 -38 19 -19 15 -45 25 -65 25 -29 0 -32 -2 -26
-22 17 -57 29 -128 24 -133 -3 -3 -19 8 -36 24 -28 28 -77 49 -88 38 -3 -3 0
-32 6 -66 6 -34 8 -66 5 -71 -3 -5 -23 1 -44 16 -21 13 -55 27 -75 31 -42 7
-114 -17 -165 -55 -79 -59 -82 -184 -4 -207 17 -4 30 1 48 19 29 29 32 62 9
94 -20 29 -11 42 33 42 51 0 103 -53 103 -107 0 -57 -27 -91 -110 -138 -61
-34 -79 -50 -97 -85 -13 -24 -21 -45 -19 -48 3 -2 22 14 43 35 26 26 60 45
108 62 162 55 305 143 438 271 178 169 286 389 352 715 33 162 72 545 56 545
-4 0 -19 -44 -34 -97z"/>
<path d="M2773 4060 c-22 -9 -53 -57 -53 -83 0 -22 40 -67 68 -78 32 -12 87 5
107 34 51 73 -34 162 -122 127z"/>
<path d="M1800 1282 c-27 -5 -36 -13 -38 -31 -4 -22 -2 -24 34 -18 21 4 82 0
136 -8 140 -21 178 -8 114 39 -23 17 -44 21 -119 23 -51 1 -108 -2 -127 -5z"/>
<path d="M1780 1109 c-16 -60 -50 -240 -50 -266 0 -13 6 -23 14 -23 17 0 50
94 71 204 20 106 20 126 -5 126 -14 0 -22 -11 -30 -41z"/>
<path d="M2014 983 c6 -148 16 -226 30 -241 4 -3 12 0 19 7 16 16 15 256 -2
334 -10 47 -16 57 -33 57 -21 0 -21 -2 -14 -157z"/>
</g>
</svg>
