<?xml version="1.0" standalone="no"?>
<!DOCTYPE svg PUBLIC "-//W3C//DTD SVG 20010904//EN"
 "http://www.w3.org/TR/2001/REC-SVG-20010904/DTD/svg10.dtd">
<svg version="1.0" xmlns="http://www.w3.org/2000/svg"
 width="800.000000pt" height="800.000000pt" viewBox="0 0 800.000000 800.000000"
 preserveAspectRatio="xMidYMid meet">
<metadata>
Created by potrace 1.14, written by Peter Selinger 2001-2017
</metadata>
<g transform="translate(0.000000,800.000000) scale(0.100000,-0.100000)"
fill="#000000" stroke="none">
<path d="M3708 7135 c-2 -2 -66 -6 -143 -9 -191 -9 -409 -22 -515 -31 -25 -2
-79 -6 -120 -9 -41 -3 -84 -8 -95 -10 -11 -2 -56 -7 -99 -11 -43 -4 -88 -8
-99 -11 -11 -2 -43 -6 -71 -9 -67 -7 -117 -13 -236 -30 -19 -3 -57 -8 -85 -11
-65 -8 -90 -12 -90 -14 0 -1 -11 -3 -25 -4 -54 -6 -118 -17 -188 -33 -57 -13
-76 -21 -82 -37 -8 -23 -5 -1259 4 -1421 5 -90 10 -192 21 -374 2 -35 7 -89
10 -120 3 -31 8 -85 11 -121 14 -196 29 -372 39 -445 3 -16 7 -48 9 -70 13
-109 44 -282 70 -385 22 -86 58 -204 76 -245 5 -11 19 -42 31 -70 12 -27 25
-58 30 -67 8 -14 2 -17 -44 -17 -51 0 -61 -2 -122 -16 -96 -24 -243 -133 -279
-209 -23 -49 -20 -76 15 -116 17 -19 52 -60 78 -90 27 -30 87 -100 135 -155
l86 -100 -4 -85 c-3 -47 -7 -96 -10 -110 -3 -14 -8 -38 -12 -55 -10 -51 -36
-125 -45 -131 -5 -3 -9 -12 -9 -19 0 -21 -82 -137 -126 -179 l-38 -35 -100 5
c-400 22 -556 -2 -649 -101 -47 -50 -58 -80 -63 -183 -3 -53 -7 -102 -9 -109
-4 -11 -15 -11 -75 2 -41 9 -132 26 -170 31 -19 3 -41 7 -48 10 -47 15 -299
23 -382 11 -139 -19 -235 -86 -262 -182 -15 -54 -18 -105 -21 -354 -4 -300 5
-351 73 -418 65 -63 234 -131 371 -149 123 -15 454 -9 576 12 15 3 55 9 88 15
212 35 457 115 650 211 91 46 225 121 250 141 6 4 44 31 86 61 80 56 110 80
141 109 22 21 34 21 107 2 31 -8 70 -16 86 -19 17 -3 41 -8 55 -12 14 -3 34
-7 45 -9 11 -2 22 -4 25 -5 3 -1 10 -3 15 -4 6 -1 24 -5 40 -9 17 -3 44 -9 60
-12 17 -3 41 -7 55 -9 62 -12 209 -35 245 -40 22 -3 58 -8 80 -10 293 -39 516
-50 950 -50 315 1 479 5 630 19 97 8 183 16 215 21 19 3 58 7 85 10 116 13
126 14 230 34 28 5 66 12 85 14 19 3 46 8 60 11 70 15 178 37 201 40 14 3 38
9 53 14 15 6 30 10 34 10 4 -1 9 0 12 1 7 2 31 8 65 15 16 3 31 8 33 10 2 2
40 -26 85 -62 45 -37 123 -92 172 -125 50 -32 97 -63 106 -69 10 -7 21 -12 25
-12 5 1 20 -7 34 -16 88 -59 412 -190 535 -215 11 -3 49 -12 85 -21 94 -23
101 -24 150 -30 25 -3 59 -8 75 -11 75 -13 122 -16 290 -19 214 -4 307 8 475
60 85 26 181 99 212 160 29 57 39 273 24 545 -8 164 -19 202 -76 258 -28 29
-91 68 -112 71 -5 1 -9 1 -10 2 -89 27 -325 29 -473 4 -124 -21 -143 -24 -214
-41 -35 -8 -66 -12 -68 -10 -3 3 -7 50 -9 106 -2 56 -7 107 -11 114 -4 6 -8
17 -9 23 -1 7 -9 20 -18 28 -8 9 -21 24 -28 33 -32 42 -120 78 -243 99 -45 8
-243 8 -382 0 l-122 -6 -31 27 c-78 67 -165 221 -185 328 -2 10 -4 19 -5 19
-2 0 -8 31 -15 85 -6 40 -8 93 -6 142 1 9 58 83 129 164 197 228 199 231 197
256 -2 42 -37 97 -90 147 -90 82 -205 130 -317 132 l-57 2 19 36 c53 101 123
306 144 421 2 14 7 36 10 50 5 23 12 59 20 105 13 73 16 94 19 127 1 21 4 38
7 38 3 0 6 17 7 38 1 20 4 57 7 82 2 25 7 77 11 115 3 39 8 97 11 130 3 33 7
85 9 115 2 30 7 89 10 130 39 461 53 1025 43 1797 l-2 161 -35 11 c-67 19 -86
25 -101 26 -15 2 -87 14 -125 21 -26 5 -102 16 -140 20 -16 1 -30 3 -30 4 0 1
-11 3 -25 5 -14 1 -52 6 -85 10 -33 5 -73 9 -90 11 -16 1 -30 3 -30 4 0 1 -16
3 -35 5 -19 2 -60 6 -90 10 -30 3 -73 8 -95 10 -22 3 -65 7 -95 11 -129 14
-294 26 -520 39 -58 4 -136 8 -175 11 -76 5 -753 12 -757 9z m-845 -4397 c34
-29 64 -55 67 -58 29 -31 345 -250 360 -250 5 0 10 -4 10 -9 0 -5 8 -11 18
-15 9 -3 26 -11 37 -18 169 -110 457 -237 595 -264 59 -11 90 -5 210 37 47 17
101 35 120 42 44 14 337 163 350 178 3 3 28 19 55 34 28 16 52 32 55 36 3 3
16 12 30 19 69 36 377 271 407 310 10 13 11 12 8 -5 -2 -11 -4 -20 -5 -20 -2
0 -9 -30 -18 -75 -7 -40 -6 -198 2 -250 6 -33 21 -88 33 -120 4 -8 7 -18 8
-22 2 -5 3 -9 5 -10 1 -2 3 -10 5 -19 1 -8 17 -46 35 -83 18 -37 31 -68 29
-70 -2 -2 -38 -8 -79 -14 -41 -7 -84 -13 -95 -16 -20 -4 -99 -15 -145 -21 -97
-12 -127 -16 -140 -20 -8 -2 -44 -7 -80 -10 -36 -4 -73 -9 -83 -11 -10 -2 -55
-6 -100 -10 -45 -3 -91 -8 -102 -10 -92 -18 -623 -25 -810 -10 -151 12 -165
13 -230 21 -63 8 -74 9 -172 19 -34 4 -72 9 -84 11 -13 3 -41 7 -64 10 -99 13
-173 24 -205 30 -28 5 -64 11 -130 20 -24 4 -48 8 -51 11 -4 2 8 34 26 71 62
129 96 265 97 386 1 71 -16 176 -33 210 -15 28 -1 20 64 -35z"/>
</g>
</svg>
