<?xml version="1.0" standalone="no"?>
<!DOCTYPE svg PUBLIC "-//W3C//DTD SVG 20010904//EN"
 "http://www.w3.org/TR/2001/REC-SVG-20010904/DTD/svg10.dtd">
<svg version="1.0" xmlns="http://www.w3.org/2000/svg"
 width="387.000000pt" height="387.000000pt" viewBox="0 0 387.000000 387.000000"
 preserveAspectRatio="xMidYMid meet">
<metadata>
Created by potrace 1.14, written by Peter Selinger 2001-2017
</metadata>
<g transform="translate(0.000000,387.000000) scale(0.100000,-0.100000)"
fill="#000000" stroke="none">
<path d="M1630 3769 c-25 -5 -70 -14 -100 -21 -30 -6 -60 -13 -66 -14 -6 -1
-60 -18 -120 -39 -175 -60 -301 -126 -532 -283 -49 -34 -289 -276 -343 -347
-138 -180 -273 -447 -314 -618 -2 -9 -11 -44 -19 -77 -9 -34 -15 -64 -14 -68
1 -4 -4 -32 -12 -62 -11 -41 -15 -119 -15 -300 0 -270 4 -309 50 -495 3 -11 7
-29 9 -40 11 -50 70 -204 112 -292 113 -237 318 -492 529 -659 28 -21 53 -43
57 -49 4 -5 8 -6 8 -1 0 5 9 -1 20 -14 11 -13 20 -19 20 -14 0 5 4 4 8 -1 4
-6 30 -24 57 -41 28 -16 59 -35 70 -42 38 -23 204 -103 232 -112 15 -5 59 -20
98 -34 38 -14 71 -23 74 -21 2 2 11 0 21 -5 9 -5 30 -12 46 -15 59 -10 74 -14
84 -20 18 -11 148 -17 370 -17 236 -1 341 6 375 25 11 6 20 9 20 8 0 -7 96 12
101 20 3 5 10 7 15 3 5 -3 16 0 24 6 8 7 15 9 15 5 0 -4 7 -2 15 5 8 6 19 9
25 5 5 -3 10 -1 10 5 0 6 5 8 10 5 6 -4 18 -1 26 6 9 7 25 14 36 16 44 7 314
146 367 189 9 7 53 40 98 74 166 124 372 354 468 523 19 34 40 69 45 77 16 24
63 126 75 160 1 3 5 14 10 25 28 67 44 115 40 115 -3 0 -1 9 5 21 6 11 13 29
16 40 11 49 19 78 27 99 16 40 21 129 23 410 2 168 -1 323 -5 345 -5 22 -16
72 -25 110 -42 192 -136 414 -237 562 -16 23 -29 46 -29 51 0 6 -3 12 -8 14
-4 2 -21 22 -38 45 -49 67 -225 263 -236 263 -2 0 -28 23 -58 51 -55 50 -185
143 -270 193 -142 82 -382 180 -473 192 -16 2 -33 7 -39 10 -6 4 -23 8 -37 10
-14 2 -48 8 -76 13 -62 12 -583 12 -645 0z m535 -49 c0 -1 11 -3 25 -5 47 -6
105 -17 165 -32 33 -8 70 -16 82 -18 12 -2 27 -6 32 -10 6 -3 19 -8 28 -10 10
-2 34 -9 53 -16 57 -20 65 -22 70 -23 17 -3 233 -114 268 -137 24 -16 47 -29
52 -29 5 0 15 -6 22 -12 7 -7 49 -40 92 -72 100 -74 278 -253 342 -343 26 -37
54 -74 60 -80 7 -7 18 -26 26 -43 7 -16 16 -30 20 -30 5 0 8 -6 8 -14 0 -8 3
-16 8 -18 23 -10 161 -333 177 -413 2 -11 6 -29 8 -40 34 -137 43 -190 53
-310 11 -142 0 -385 -20 -454 -3 -9 -7 -27 -10 -41 -8 -45 -47 -191 -61 -228
-47 -125 -68 -176 -106 -247 -23 -44 -50 -92 -60 -107 -11 -14 -19 -31 -19
-37 0 -6 -4 -11 -10 -11 -5 0 -10 -6 -10 -14 0 -8 -3 -16 -8 -18 -4 -1 -30
-34 -57 -73 -95 -134 -296 -320 -462 -428 -168 -110 -461 -229 -615 -251 -21
-3 -56 -10 -78 -15 -22 -5 -54 -8 -70 -7 -17 1 -30 0 -30 -3 0 -11 -216 -15
-310 -7 -30 3 -81 7 -113 10 -33 3 -73 9 -90 15 -31 9 -102 24 -122 26 -5 0
-14 3 -20 7 -5 3 -26 9 -45 13 -19 4 -39 10 -45 14 -5 3 -12 6 -15 6 -24 3
-142 51 -240 98 -298 143 -618 454 -767 747 -15 30 -31 57 -35 58 -5 2 -8 10
-8 18 0 8 -5 14 -11 14 -5 0 -7 5 -4 10 4 6 0 21 -8 34 -14 20 -73 176 -82
216 -2 8 -11 41 -19 72 -9 32 -18 72 -21 90 -3 18 -8 40 -10 48 -7 23 -27 255
-26 305 2 148 20 291 53 420 11 44 20 86 21 93 0 6 5 12 10 12 6 0 8 3 4 6 -8
8 53 177 67 186 6 4 7 8 2 8 -5 0 -3 7 4 15 7 8 10 15 7 15 -3 0 14 36 39 80
65 118 68 123 82 138 6 7 12 17 12 22 0 5 6 15 13 22 7 7 28 35 47 62 63 89
213 248 294 311 22 17 51 39 65 51 40 32 141 98 191 125 25 13 51 30 58 37 7
6 18 12 23 12 6 0 44 16 85 35 41 19 79 35 84 35 6 0 18 4 28 10 19 11 203 63
267 76 48 10 61 12 145 19 36 4 66 7 67 8 2 3 348 -1 348 -3z"/>
<path d="M2355 3616 c-16 -19 -38 -39 -50 -44 -17 -8 -22 -19 -23 -49 0 -60
-17 -93 -44 -87 -34 7 -78 8 -84 1 -3 -3 -1 -15 6 -26 7 -15 20 -21 44 -21 44
0 42 -18 -6 -76 -41 -49 -44 -69 -12 -70 20 0 74 52 74 72 0 13 30 41 30 28 0
-5 3 -19 6 -30 4 -14 -1 -28 -14 -40 -24 -24 -33 -70 -16 -85 17 -14 50 4 59
31 3 11 11 20 17 20 7 0 31 21 55 47 34 36 40 40 28 17 -31 -61 -9 -108 63
-132 63 -21 126 30 107 87 -9 29 -23 26 -43 -9 -22 -38 -39 -44 -68 -25 -27
18 -28 23 -12 62 6 15 13 35 14 43 2 8 5 24 7 35 3 11 0 26 -6 33 -11 14 -12
13 26 16 36 4 53 19 35 33 -19 14 -115 33 -134 26 -15 -5 -15 -3 0 25 21 41
20 59 -4 74 -21 13 -27 38 -10 38 6 0 10 9 10 20 0 30 -23 24 -55 -14z m18
-102 c-3 -8 -9 -14 -13 -14 -13 0 -22 19 -15 30 9 14 34 0 28 -16z m38 -128
c-11 -11 -20 -25 -20 -29 0 -4 -9 -20 -20 -35 l-20 -27 16 57 c10 35 22 59 32
61 28 6 33 -4 12 -27z"/>
<path d="M1496 3613 c-7 -8 14 -45 33 -60 14 -11 14 -13 -1 -14 -10 -1 -22 -3
-28 -4 -5 -1 -14 -3 -19 -4 -5 0 -12 -10 -16 -20 -3 -11 -19 -36 -35 -56 -36
-45 -39 -81 -8 -91 17 -5 27 0 45 22 13 16 23 34 23 40 0 10 41 54 52 54 13 0
-11 -95 -27 -106 -34 -25 -11 -44 52 -41 52 2 58 0 58 -18 0 -15 -11 -23 -47
-34 -35 -11 -48 -20 -48 -33 0 -28 45 -41 89 -26 20 6 53 13 74 14 43 2 67 18
67 45 0 15 -20 26 -32 17 -2 -1 -13 4 -25 10 -18 10 -20 18 -15 54 3 24 11 49
19 57 19 18 11 35 -18 39 -38 6 -50 21 -38 45 l11 20 17 -21 c24 -33 91 -17
97 22 4 28 -29 45 -96 47 -48 1 -71 7 -86 21 -20 18 -87 32 -98 21z m114 -159
c7 -19 7 -31 -1 -40 -18 -22 -30 -16 -23 11 4 15 1 32 -6 40 -10 12 -9 15 4
15 9 0 21 -12 26 -26z"/>
<path d="M2476 3541 c-9 -14 1 -44 19 -57 20 -15 55 -3 55 19 0 22 -64 55 -74
38z"/>
<path d="M951 3266 l-24 -13 23 -16 c28 -19 83 -4 78 22 -4 21 -46 25 -77 7z"/>
<path d="M809 3253 c-1 -5 -1 -12 1 -18 1 -5 3 -25 6 -45 17 -150 22 -163 58
-158 33 5 31 -27 -3 -52 -32 -22 -40 -45 -18 -53 15 -5 48 11 63 31 8 12 13
10 28 -13 10 -15 23 -43 30 -63 16 -45 50 -52 53 -12 0 14 1 28 2 32 1 4 13 3
28 -3 40 -15 57 10 36 52 -12 23 -12 33 -3 44 12 15 10 50 -5 90 -4 11 3 6 15
-12 38 -56 90 -56 152 1 27 25 36 40 33 56 -6 30 -33 59 -54 57 -18 -1 -26
-33 -11 -42 15 -9 -10 -53 -34 -59 -26 -7 -71 40 -81 85 -7 31 -31 39 -53 17
-7 -7 -12 -9 -12 -5 0 3 11 18 26 32 14 14 22 30 19 35 -10 17 -39 11 -53 -10
-7 -11 -18 -20 -24 -20 -7 0 -24 -12 -39 -26 -25 -24 -29 -25 -44 -11 -12 12
-22 14 -40 7 -22 -8 -25 -7 -25 14 0 37 -10 56 -31 56 -10 0 -20 -3 -20 -7z
m106 -133 c-3 -5 -13 -10 -21 -10 -8 0 -12 5 -9 10 3 6 13 10 21 10 8 0 12 -4
9 -10z m110 -27 c19 -44 14 -52 -14 -22 -21 23 -26 40 -14 52 10 11 12 9 28
-30z m-5 -122 c0 -4 -3 -11 -7 -14 -8 -9 -34 13 -28 24 6 9 35 1 35 -10z"/>
<path d="M1941 3181 c-18 -12 -18 -170 0 -182 21 -12 23 -4 25 84 3 88 -3 111
-25 98z"/>
<path d="M1812 3171 c-14 -9 -15 -18 -7 -103 3 -31 1 -59 -4 -63 -6 -3 -10 3
-10 12 0 10 -3 38 -6 63 -3 25 -5 53 -6 62 0 19 -30 33 -39 18 -8 -12 -5 -79
5 -102 4 -9 4 -22 0 -28 -3 -5 -1 -10 4 -10 6 0 10 -3 10 -7 -7 -41 17 -57 41
-28 9 11 16 12 25 5 23 -19 30 15 22 110 -5 56 -18 82 -35 71z"/>
<path d="M1865 3170 c-6 -9 4 -171 10 -178 2 -2 12 1 23 7 15 8 18 18 15 43
-2 18 -5 51 -6 73 -3 55 -24 84 -42 55z"/>
<path d="M1996 3171 c-3 -5 -8 -45 -11 -90 -4 -73 -2 -82 15 -91 11 -6 20 -7
21 -3 1 4 3 33 5 63 2 30 5 66 7 80 5 37 -22 66 -37 41z"/>
<path d="M2060 3161 c-10 -20 -20 -86 -20 -129 0 -33 13 -53 28 -43 15 9 29
117 23 179 -2 18 -19 15 -31 -7z"/>
<path d="M2119 3163 c-3 -36 -11 -86 -19 -127 -8 -38 -8 -51 2 -58 19 -11 33
-4 35 18 2 10 5 30 7 44 17 91 18 113 5 121 -17 11 -29 11 -30 2z"/>
<path d="M1675 3138 c-4 -12 0 -65 6 -78 1 -3 3 -9 4 -15 12 -65 19 -85 31
-85 23 0 29 4 26 20 -1 8 -4 26 -6 40 -3 14 -5 25 -6 25 -2 0 -7 28 -12 60 -5
26 -17 45 -29 45 -5 0 -12 -6 -14 -12z"/>
<path d="M2191 3141 c-8 -5 -15 -18 -16 -28 -1 -10 -8 -46 -16 -81 -11 -55
-11 -64 1 -72 20 -13 33 -12 25 0 -3 6 -2 10 2 10 5 0 9 10 10 23 1 32 13 88
22 105 9 16 3 52 -8 52 -3 0 -12 -4 -20 -9z"/>
<path d="M1611 3103 c2 -21 6 -45 10 -53 4 -8 13 -37 20 -63 12 -48 32 -69 49
-51 4 5 -3 45 -16 89 -13 44 -24 88 -24 98 0 10 -8 17 -21 17 -18 0 -20 -5
-18 -37z"/>
<path d="M2245 3131 c-3 -6 -4 -11 -1 -11 3 0 1 -12 -5 -27 -14 -35 -28 -88
-35 -130 -5 -30 -3 -33 20 -33 17 0 26 -5 26 -16 0 -9 7 -14 17 -12 11 2 25
27 39 66 13 34 20 62 17 62 -3 0 -1 6 4 13 30 37 19 99 -11 66 -13 -14 -45
-94 -51 -127 -2 -9 -4 -19 -5 -22 -1 -3 -2 -8 -1 -12 0 -5 -3 -8 -9 -8 -5 0
-10 3 -10 6 0 11 31 119 38 134 13 25 8 54 -10 58 -9 2 -19 -2 -23 -7z"/>
<path d="M3181 3102 c-9 -19 -17 -23 -37 -19 -23 4 -25 2 -20 -19 9 -34 -9
-30 -41 11 -33 41 -63 47 -63 11 0 -13 9 -35 20 -49 14 -18 17 -28 9 -33 -18
-11 -103 -12 -116 -1 -7 5 -13 6 -13 2 0 -4 -6 -2 -13 4 -10 8 -18 7 -32 -3
-18 -13 -17 -14 8 -31 15 -10 51 -18 83 -20 30 -2 57 -5 60 -8 2 -2 -3 -32
-12 -67 -15 -58 -15 -66 1 -106 12 -31 22 -44 36 -44 21 0 23 5 19 73 -3 82
10 146 33 158 17 9 23 8 34 -7 18 -25 47 -26 62 -3 9 16 7 21 -9 31 -33 21
-24 38 19 38 56 0 67 19 42 72 -18 37 -56 42 -70 10z"/>
<path d="M1551 3107 c-7 -9 -4 -26 10 -56 10 -24 16 -47 13 -52 -3 -5 0 -9 6
-9 6 0 8 -4 5 -10 -3 -5 -3 -16 2 -22 4 -7 9 -22 10 -33 4 -23 21 -35 40 -28
17 7 14 24 -20 116 -27 71 -27 72 -27 86 0 15 -28 21 -39 8z"/>
<path d="M1488 3095 c-7 -8 3 -54 13 -61 5 -3 9 -14 9 -25 0 -11 7 -31 16 -44
9 -14 13 -25 9 -25 -4 0 -2 -7 5 -15 7 -8 8 -15 2 -15 -10 0 -57 99 -54 113 1
4 -2 7 -8 7 -5 0 -10 6 -10 13 0 22 -22 38 -36 26 -15 -12 -13 -18 40 -132 20
-42 36 -81 36 -85 0 -5 9 -17 20 -27 19 -17 20 -17 27 0 3 11 0 30 -10 47 -14
24 -14 28 -2 28 8 0 14 -5 13 -11 -2 -6 5 -16 15 -22 14 -10 20 -9 27 3 5 8 5
19 1 25 -10 13 -72 176 -73 193 -1 12 -30 17 -40 7z"/>
<path d="M2373 3088 c-6 -7 -18 -35 -28 -63 -10 -27 -23 -56 -28 -62 -5 -7 -6
-13 -3 -13 4 0 1 -9 -7 -21 -16 -23 -11 -59 8 -59 11 0 26 28 56 105 7 17 13
32 13 35 1 3 5 11 9 18 5 6 5 12 1 12 -3 0 1 11 9 24 15 22 15 25 1 30 -20 8
-20 8 -31 -6z"/>
<path d="M2423 3047 c-9 -18 -18 -34 -18 -37 -1 -3 -13 -31 -28 -62 -45 -94
-46 -101 -29 -118 9 -8 18 -14 19 -12 2 1 3 -1 4 -5 2 -15 22 -33 31 -27 5 3
27 43 50 87 22 45 49 99 60 121 17 32 18 40 7 47 -21 13 -23 12 -44 -28 -10
-21 -20 -40 -21 -42 -2 -1 -7 0 -13 3 -6 4 -3 18 9 39 24 38 25 53 5 61 -10 3
-21 -6 -32 -27z m17 -92 c-4 -22 -58 -124 -63 -119 -3 4 2 18 11 32 9 14 16
27 14 29 -1 2 4 16 12 32 9 16 12 32 8 36 -4 4 -1 6 6 4 8 -3 13 -9 12 -14z"/>
<path d="M1365 3040 c-5 -7 87 -194 98 -198 10 -5 9 -22 -1 -22 -4 0 -19 22
-33 50 -13 27 -27 50 -31 50 -5 0 -8 7 -8 15 0 8 -5 15 -11 15 -5 0 -8 4 -4 9
8 13 -37 59 -52 54 -22 -8 -15 -31 26 -91 22 -31 38 -59 35 -63 -2 -4 3 -12
11 -19 8 -7 15 -17 15 -22 0 -16 60 -98 72 -98 10 0 7 36 -6 75 -4 11 0 7 9
-9 15 -26 18 -27 32 -13 14 14 13 22 -18 84 -19 37 -36 70 -39 73 -3 3 -17 30
-32 61 -23 50 -50 70 -63 49z"/>
<path d="M2527 2978 c-30 -57 -52 -93 -59 -98 -4 -3 -14 -22 -22 -42 -9 -20
-20 -39 -26 -43 -5 -3 -10 -17 -10 -31 0 -32 28 -32 40 1 5 14 14 25 20 25 6
0 1 -14 -12 -32 -29 -41 -31 -56 -8 -68 12 -6 16 -17 13 -30 -4 -15 0 -20 13
-20 12 0 30 19 49 50 17 27 33 50 36 50 3 0 14 16 25 35 10 19 21 35 25 35 10
0 79 108 79 124 0 20 -30 13 -46 -10 -8 -10 -21 -28 -29 -39 -9 -11 -34 -44
-56 -74 -21 -30 -39 -49 -39 -42 0 6 5 17 10 24 33 38 110 169 105 177 -17 27
-51 -10 -121 -129 -11 -19 -26 -37 -33 -39 -7 -2 -2 13 13 34 14 21 26 44 26
51 0 7 5 13 10 13 6 0 10 5 10 12 0 6 6 19 14 27 8 9 18 28 21 44 11 41 -26
37 -48 -5z m-37 -260 c-23 -35 -23 -31 -1 15 8 15 16 25 19 22 2 -2 -5 -19
-18 -37z"/>
<path d="M1262 2971 c-10 -6 5 -36 62 -124 42 -63 76 -119 76 -124 0 -4 -12
10 -26 31 -15 22 -33 46 -40 55 -40 50 -84 112 -84 120 0 16 -38 19 -44 4 -5
-13 25 -63 62 -101 20 -22 34 -52 23 -52 -6 0 -14 6 -18 14 -40 68 -123 132
-123 95 0 -8 56 -85 80 -109 9 -9 85 -105 99 -125 17 -24 -26 21 -127 132 -70
77 -102 97 -102 64 0 -9 8 -24 18 -33 9 -9 35 -38 57 -64 74 -87 143 -154 159
-154 9 0 15 3 15 8 -1 4 -1 14 0 22 1 12 4 12 12 -2 5 -10 19 -18 30 -18 17 0
18 3 8 23 -16 29 -69 97 -93 119 -14 13 -15 18 -5 18 8 -1 34 -30 59 -66 56
-81 69 -96 81 -89 16 10 10 41 -11 60 -11 10 -20 25 -19 34 0 12 3 10 9 -4 4
-12 15 -26 23 -33 24 -21 32 21 11 55 -67 106 -167 253 -172 253 -4 0 -13 -4
-20 -9z"/>
<path d="M2679 2867 c-18 -23 -42 -52 -53 -64 -36 -38 -46 -52 -46 -63 0 -5
-4 -10 -9 -10 -10 0 -71 -88 -71 -102 0 -4 8 -8 18 -7 9 0 44 34 77 76 33 42
65 81 70 87 24 26 72 92 77 106 12 34 -32 18 -63 -23z"/>
<path d="M2727 2827 c-92 -97 -172 -190 -175 -203 -2 -8 4 -14 16 -14 11 0 45
29 80 69 34 38 79 88 101 112 22 24 41 50 41 57 0 23 -31 12 -63 -21z"/>
<path d="M1865 2782 c-22 -30 -95 -130 -163 -221 -67 -91 -129 -175 -137 -186
-8 -11 -21 -29 -30 -40 -82 -103 -223 -308 -219 -318 2 -7 13 -18 23 -24 15
-10 23 -9 39 5 55 46 63 52 72 52 6 0 10 4 10 8 0 5 19 19 43 32 23 12 51 30
61 39 18 15 18 15 10 -1 -11 -20 -86 -108 -136 -160 -21 -21 -34 -38 -31 -38
3 0 -5 -10 -18 -22 -24 -22 -149 -163 -178 -201 -12 -15 -11 -20 4 -37 10 -11
25 -20 33 -20 11 0 83 49 102 70 10 11 129 78 152 85 12 4 25 11 28 15 3 5 14
10 25 12 11 1 23 6 26 11 3 4 15 9 27 12 l22 4 -23 -32 c-12 -17 -27 -36 -33
-42 -7 -5 -59 -64 -115 -130 -112 -130 -123 -142 -172 -196 -78 -88 -88 -101
-85 -117 4 -20 22 -42 37 -42 5 0 46 26 91 58 132 95 299 169 425 188 65 10
286 10 340 0 192 -34 348 -93 565 -214 50 -29 56 -30 72 -15 10 9 18 24 18 34
0 9 -114 128 -257 266 -240 234 -265 265 -190 234 16 -6 36 -11 46 -11 9 0 22
-5 28 -11 6 -6 17 -12 24 -13 27 -6 177 -74 189 -86 20 -20 63 -33 78 -24 35
22 25 50 -39 111 -114 107 -362 353 -356 353 14 0 180 -77 227 -106 53 -31 76
-35 96 -13 14 16 15 21 3 36 -28 36 -288 326 -384 428 -22 24 -60 67 -85 95
-25 29 -54 62 -65 74 -101 110 -132 142 -145 147 -10 4 -28 -11 -55 -49z m146
-134 c134 -148 154 -170 189 -208 19 -21 55 -61 80 -89 25 -29 69 -77 98 -108
29 -30 50 -58 47 -61 -3 -4 -10 -1 -14 7 -5 7 -12 12 -17 12 -5 0 -51 13 -103
29 -52 17 -100 30 -107 30 -7 0 -57 44 -112 98 -101 99 -149 142 -157 142 -6
0 -41 -37 -95 -99 -96 -112 -147 -160 -176 -167 -16 -4 -53 -20 -83 -36 -30
-15 -56 -27 -58 -25 -2 3 102 150 140 197 7 8 46 60 87 115 41 55 78 102 82
103 5 2 8 10 8 17 0 7 4 15 8 17 5 2 26 27 46 56 21 28 44 52 51 52 7 0 46
-37 86 -82z m-23 -296 c34 -32 62 -61 62 -64 0 -3 -33 -6 -72 -7 -40 0 -91 -1
-113 -2 -68 -2 -71 -1 -49 20 10 11 37 40 59 65 22 25 43 45 46 45 3 1 33 -25
67 -57z m155 -155 c32 -21 329 -318 323 -324 -2 -3 -15 1 -28 8 -12 7 -27 14
-33 15 -5 1 -48 13 -95 27 -47 13 -103 28 -126 31 -43 8 -57 18 -186 143 -55
53 -81 72 -91 66 -8 -4 -49 -48 -90 -97 -42 -49 -84 -94 -94 -101 -18 -12 -71
-31 -109 -40 -10 -2 -35 -9 -54 -16 -19 -7 -39 -14 -45 -15 -5 -2 -17 -8 -25
-12 -35 -20 -60 -32 -60 -29 0 4 24 33 74 87 12 14 66 75 118 135 121 139 128
142 345 139 119 -1 157 -5 176 -17z m-160 -167 c28 -27 49 -50 47 -51 -3 0
-14 -3 -25 -5 -27 -6 -165 -7 -171 -1 -6 5 78 107 89 107 5 0 32 -22 60 -50z
m124 -131 c7 -1 103 -94 215 -207 171 -172 196 -201 158 -182 -25 13 -46 22
-47 22 -3 -1 -18 3 -63 18 -72 25 -173 51 -178 46 -3 -3 -10 -2 -16 3 -40 32
-374 32 -500 1 -52 -13 -183 -60 -216 -77 -13 -7 -26 -10 -28 -8 -2 2 29 42
69 88 41 46 99 112 129 147 105 121 125 140 155 148 25 7 281 7 322 1z"/>
<path d="M1062 2808 c-10 -10 1 -26 50 -75 75 -76 73 -92 -2 -22 -70 65 -86
74 -95 51 -4 -12 4 -26 27 -46 18 -16 62 -56 97 -88 59 -53 101 -73 101 -47 0
6 -13 24 -30 41 -16 16 -30 33 -30 38 0 5 17 -9 38 -29 35 -36 72 -50 72 -27
0 12 -197 216 -209 216 -4 0 -12 -5 -19 -12z"/>
<path d="M2725 2739 c-44 -44 -88 -88 -97 -97 -23 -22 -23 -42 1 -42 25 0 211
187 204 206 -10 26 -28 15 -108 -67z"/>
<path d="M2829 2753 c-18 -15 -50 -44 -70 -63 -20 -19 -49 -46 -66 -60 -31
-26 -33 -50 -4 -50 9 1 56 38 105 84 73 68 87 86 79 100 -9 16 -13 15 -44 -11z"/>
<path d="M453 2719 c-6 -6 -9 -17 -6 -24 4 -12 -29 -39 -38 -30 -2 2 -22 -9
-44 -24 -39 -27 -57 -71 -25 -62 8 2 27 6 43 9 25 4 27 2 27 -24 0 -16 0 -38
2 -49 4 -44 -3 -71 -27 -99 -25 -29 -25 -46 0 -46 18 0 76 50 70 60 -3 4 2 13
10 20 8 7 15 9 15 5 0 -4 6 -3 13 2 6 5 22 8 35 7 12 0 32 8 45 20 28 26 32
26 80 3 46 -22 42 -31 -13 -29 -43 2 -80 -15 -80 -35 0 -14 68 -63 87 -63 7 0
19 12 26 27 8 14 29 33 48 42 31 15 36 24 30 59 0 5 -19 15 -41 22 -22 7 -40
16 -40 19 1 12 27 41 38 41 5 0 13 7 16 16 17 43 -35 46 -86 4 -35 -29 -56
-29 -38 0 6 10 1 19 -16 31 -14 9 -25 20 -24 25 2 9 -13 19 -44 28 -12 4 -16
12 -12 23 11 27 -29 44 -51 22z m27 -194 c0 -8 -2 -15 -4 -15 -2 0 -6 7 -10
15 -3 8 -1 15 4 15 6 0 10 -7 10 -15z"/>
<path d="M970 2706 c0 -8 19 -29 42 -48 47 -36 69 -54 100 -80 27 -23 58 -32
70 -20 6 6 -6 21 -32 43 -23 19 -52 42 -63 53 -76 65 -117 83 -117 52z"/>
<path d="M2834 2677 c-28 -23 -65 -54 -83 -68 -21 -17 -29 -32 -25 -42 4 -12
11 -14 24 -7 21 11 34 2 20 -15 -8 -9 -5 -14 9 -18 13 -3 47 16 105 57 47 33
86 65 86 69 0 4 -7 10 -16 14 -9 3 -45 -14 -91 -46 -83 -56 -110 -63 -41 -10
57 44 108 91 108 101 0 21 -50 3 -96 -35z"/>
<path d="M928 2658 c-3 -7 25 -34 61 -60 36 -26 75 -54 86 -63 10 -8 29 -15
41 -15 31 0 21 31 -16 53 -15 9 -52 35 -81 57 -54 41 -84 50 -91 28z"/>
<path d="M894 2609 c-4 -7 1 -18 12 -26 10 -7 26 -19 35 -27 8 -7 34 -23 57
-36 23 -13 42 -28 42 -33 0 -15 45 -3 48 13 1 10 -28 33 -80 65 -95 57 -103
61 -114 44z"/>
<path d="M2945 2603 c-16 -9 -32 -19 -35 -22 -3 -4 -23 -18 -45 -31 -44 -26
-56 -40 -49 -52 11 -17 37 -6 109 43 91 62 105 108 20 62z"/>
<path d="M861 2557 c-8 -10 -4 -19 19 -35 16 -12 33 -22 39 -22 5 0 11 -3 13
-7 2 -5 24 -19 50 -33 36 -18 51 -21 59 -13 6 6 9 15 6 21 -6 8 -162 102 -171
102 -2 0 -9 -6 -15 -13z"/>
<path d="M3000 2563 c-8 -3 -34 -19 -57 -34 -23 -16 -46 -29 -52 -29 -5 0 -17
-10 -25 -22 -24 -34 1 -40 50 -13 95 53 123 75 118 90 -6 16 -10 17 -34 8z"/>
<path d="M3335 2531 c-3 -12 3 -37 15 -60 11 -22 20 -43 20 -45 0 -13 -105 6
-142 25 -33 17 -42 18 -49 7 -5 -7 -7 -19 -4 -26 3 -8 5 -17 5 -22 0 -15 80
-47 123 -49 15 -1 17 -8 13 -43 -5 -47 -20 -110 -30 -126 -9 -15 23 -23 44
-12 25 13 33 42 34 118 1 50 5 66 19 74 28 15 60 2 80 -32 12 -20 26 -30 43
-30 31 0 33 34 2 67 l-21 23 51 22 c56 25 84 60 64 80 -10 10 -16 10 -30 0
-20 -14 -61 -33 -79 -36 -7 -1 -16 -5 -19 -9 -18 -17 -41 -3 -72 43 -34 53
-57 63 -67 31z"/>
<path d="M826 2495 c-3 -9 13 -24 51 -45 31 -16 62 -30 69 -30 6 0 17 -6 24
-14 14 -17 40 -10 40 10 0 8 -8 18 -17 21 -10 4 -20 9 -23 12 -8 9 -103 54
-122 58 -9 1 -18 -4 -22 -12z"/>
<path d="M3024 2501 c-3 -3 -9 -6 -12 -7 -27 -2 -122 -61 -122 -75 0 -21 23
-19 75 7 87 43 104 54 99 67 -5 14 -29 18 -40 8z"/>
<path d="M803 2435 c-7 -19 -13 -14 73 -53 66 -30 110 -34 102 -10 -5 15 -132
78 -157 78 -7 0 -14 -7 -18 -15z"/>
<path d="M2990 2417 c-68 -34 -80 -50 -42 -55 32 -5 152 57 145 74 -8 21 -32
17 -103 -19z"/>
<path d="M776 2381 c-8 -12 12 -27 79 -56 38 -17 67 -24 83 -20 25 6 25 6 6
26 -11 11 -29 21 -39 24 -11 2 -38 11 -60 19 -47 18 -62 19 -69 7z"/>
<path d="M3035 2370 c-22 -10 -47 -19 -56 -19 -14 -1 -35 -29 -27 -36 10 -10
49 -6 80 9 21 9 42 16 47 16 11 0 41 28 41 39 0 14 -46 9 -85 -9z"/>
<path d="M762 2313 c-8 -14 1 -20 67 -43 42 -14 82 -24 89 -22 30 10 7 32 -59
56 -83 31 -85 31 -97 9z"/>
<path d="M3109 2326 c-2 -2 -17 -6 -34 -9 -46 -6 -107 -36 -102 -50 5 -16 57
-16 84 0 12 7 31 13 41 13 23 0 46 25 37 40 -6 10 -18 13 -26 6z"/>
<path d="M736 2255 c-5 -15 24 -33 64 -40 8 -2 31 -8 50 -14 19 -6 42 -11 52
-11 27 0 14 33 -18 43 -16 6 -31 13 -34 16 -3 3 -14 7 -25 7 -11 1 -34 5 -51
8 -23 4 -33 2 -38 -9z"/>
<path d="M3063 2250 c-75 -19 -94 -33 -65 -49 10 -6 22 -8 24 -5 3 2 18 6 35
8 44 6 105 34 101 47 -6 17 -25 17 -95 -1z"/>
<path d="M726 2192 c-8 -13 13 -29 49 -37 17 -3 35 -7 42 -9 7 -1 15 -4 17 -7
11 -11 76 4 76 17 0 24 -170 58 -184 36z"/>
<path d="M3075 2190 c-16 -4 -42 -11 -57 -14 -16 -4 -27 -12 -25 -19 5 -27 12
-27 140 4 47 12 51 39 5 38 -18 0 -46 -4 -63 -9z"/>
<path d="M712 2123 c3 -17 34 -28 108 -39 19 -3 40 -7 47 -9 16 -5 44 18 35
30 -4 6 -40 16 -80 23 -99 16 -114 16 -110 -5z"/>
<path d="M3060 2126 c-35 -7 -56 -17 -58 -27 -2 -12 6 -15 35 -14 91 4 160 25
147 46 -7 12 -55 10 -124 -5z"/>
<path d="M723 2070 c-48 -7 -27 -30 33 -36 52 -5 93 -10 109 -14 6 -1 18 -2
28 -1 19 1 23 29 5 36 -29 10 -145 20 -175 15z"/>
<path d="M3052 2068 c-52 -9 -63 -15 -56 -33 6 -14 65 -14 143 0 42 7 53 14
49 27 -5 13 -79 16 -136 6z"/>
<path d="M727 2012 c-33 -3 -36 -5 -27 -23 8 -13 18 -18 35 -15 13 2 26 1 30
-2 4 -4 19 -8 33 -8 65 -3 75 -4 68 -11 -4 -4 -39 -8 -77 -9 -39 -1 -78 -5
-87 -9 -38 -15 27 -30 125 -30 84 1 98 4 101 18 3 16 -7 21 -35 18 -7 -1 -13
3 -13 9 0 5 3 10 8 10 17 1 32 18 27 31 -4 10 -22 14 -68 13 -34 -1 -66 1 -72
5 -5 3 -27 5 -48 3z"/>
<path d="M2997 1997 c-20 -8 -21 -9 -5 -21 17 -12 96 -13 167 -2 39 6 45 11
36 26 -8 12 -162 10 -198 -3z"/>
<path d="M393 1991 c-19 -12 -33 -50 -33 -88 0 -22 -6 -47 -13 -57 -13 -17
-14 -17 -30 8 -24 36 -74 36 -87 1 -5 -14 -18 -35 -29 -46 -24 -26 -16 -57 18
-66 30 -7 41 -20 41 -49 0 -35 27 -37 47 -4 9 16 22 31 27 33 18 7 56 -11 56
-26 0 -8 7 -20 14 -27 11 -9 13 -18 5 -37 -7 -20 -6 -28 8 -39 22 -16 100 -9
124 12 8 8 21 14 27 14 15 0 54 22 64 35 18 24 7 43 -29 52 -28 6 -37 14 -38
31 -1 16 4 22 17 22 11 0 28 5 39 11 19 10 20 12 4 36 -16 24 -16 26 4 47 30
32 27 72 -6 90 -60 30 -209 61 -230 47z m158 -90 c22 -13 25 -20 18 -40 l-9
-23 -19 23 c-23 28 -52 20 -46 -13 4 -22 4 -22 -10 -4 -10 13 -21 17 -39 12
-19 -5 -26 -2 -27 9 -1 8 -2 23 -3 32 -2 33 83 35 135 4z m-31 -190 c0 -21
-54 -38 -65 -21 -4 6 4 14 17 19 30 13 48 13 48 2z"/>
<path d="M3503 1973 c-24 -9 -14 -52 17 -75 36 -26 38 -36 6 -44 -14 -3 -27
-12 -30 -20 -13 -33 -26 -12 -23 36 2 28 0 50 -4 50 -5 0 -8 5 -6 12 1 6 -6
14 -17 16 -17 4 -18 -2 -12 -77 5 -79 5 -82 -19 -93 -19 -9 -29 -7 -50 6 -14
9 -23 21 -20 26 11 17 16 88 7 94 -17 10 -86 -102 -77 -126 11 -27 59 -46 115
-45 42 1 55 -2 56 -13 1 -8 2 -25 2 -38 2 -19 5 -21 22 -12 14 8 20 21 20 47
0 29 3 34 12 25 16 -16 45 -15 51 1 4 8 6 6 6 -4 1 -9 -8 -24 -19 -34 -31 -28
-17 -100 18 -88 25 8 42 33 42 60 0 29 5 29 36 -2 48 -48 91 -25 69 38 -7 20
-10 37 -6 37 3 0 0 4 -7 8 -10 7 -8 14 7 34 11 14 17 28 14 32 -11 10 -78 7
-90 -5 -6 -6 -17 -9 -24 -7 -8 3 5 13 29 23 23 10 42 22 42 27 0 4 7 8 15 8
11 0 12 6 6 23 -9 23 -38 29 -78 15 -14 -4 -23 -4 -23 3 0 10 -60 70 -70 68
-3 0 -11 -3 -17 -6z m54 -192 c-1 -11 -6 -17 -14 -14 -10 4 -11 9 -2 19 15 19
18 18 16 -5z m98 -31 c3 -5 -1 -10 -9 -10 -8 0 -18 5 -21 10 -3 6 1 10 9 10 8
0 18 -4 21 -10z"/>
<path d="M3118 1955 c-3 -4 -36 -8 -73 -9 -66 -4 -98 -17 -76 -31 18 -11 173
-13 204 -3 35 13 35 28 -1 28 -15 0 -33 5 -38 10 -6 6 -13 8 -16 5z"/>
<path d="M780 1886 c-70 -8 -101 -23 -80 -36 6 -3 42 -6 81 -5 67 1 106 -9 51
-13 -74 -5 -118 -14 -132 -28 -8 -7 -10 -14 -5 -15 55 -5 132 -5 140 0 6 3 26
6 45 6 58 2 100 15 100 32 0 11 -11 14 -42 13 -24 -1 -49 -1 -57 -1 -23 2 -4
14 25 17 45 5 57 12 43 26 -14 15 -66 16 -169 4z"/>
<path d="M2958 1892 c-20 -4 -25 -31 -5 -33 65 -7 103 -9 166 -11 64 -3 74 -1
77 15 1 9 -3 17 -9 17 -11 1 -50 4 -177 13 -19 1 -43 1 -52 -1z"/>
<path d="M2917 1833 c-6 -10 21 -42 30 -35 10 7 43 1 43 -9 0 -5 -4 -8 -9 -5
-19 12 -77 15 -91 6 -13 -9 -13 -12 3 -24 23 -18 21 -25 -7 -22 -30 4 -51 -8
-42 -23 4 -6 12 -9 17 -6 5 4 9 1 9 -4 0 -13 -10 -14 -29 -2 -15 10 -53 -7
-45 -20 2 -4 -5 -14 -17 -22 l-21 -15 24 -13 c12 -7 26 -13 30 -14 3 0 10 -4
15 -8 4 -5 3 -8 -2 -7 -6 1 -19 2 -30 1 -17 -2 -15 -6 15 -33 19 -17 30 -28
25 -25 -6 3 -17 2 -24 -2 -10 -7 -8 -13 10 -30 12 -11 20 -22 16 -22 -4 -1
-11 -2 -16 -3 -19 -2 -21 -13 -6 -26 16 -13 21 -35 6 -26 -11 7 -21 -18 -13
-30 9 -12 57 -43 108 -70 23 -11 52 -28 65 -37 29 -21 45 -21 52 -2 6 13 -71
66 -165 114 -16 8 -26 16 -24 19 3 2 48 -17 101 -43 54 -26 103 -44 112 -41
21 8 4 28 -47 55 -21 11 -49 25 -62 32 -13 7 -30 16 -38 21 -8 4 -25 12 -37
18 -13 5 -23 12 -23 14 0 8 25 -2 119 -46 81 -38 121 -45 128 -22 3 10 -151
87 -201 100 -14 3 -30 12 -36 19 -6 7 31 -3 82 -22 51 -19 103 -38 116 -40 12
-3 25 -9 27 -14 8 -11 35 1 35 15 0 14 -15 22 -115 61 -201 77 -217 90 -37 29
73 -24 141 -44 152 -44 30 0 24 29 -7 41 -16 5 -35 12 -43 16 -8 3 -17 7 -20
7 -3 1 -35 10 -72 21 -71 21 -95 40 -30 24 20 -5 45 -11 55 -14 9 -2 21 -6 25
-9 8 -5 35 -11 98 -22 24 -5 31 -3 31 11 0 21 -19 29 -141 60 -138 34 -139 45
-1 15 42 -9 72 -14 123 -21 18 -3 32 2 32 11 0 13 -32 29 -76 36 -20 3 -47 9
-58 13 -12 5 -29 7 -38 6 -9 -2 -23 4 -30 13 -10 12 -10 14 -1 8 12 -7 48 -13
128 -20 22 -3 45 -5 50 -6 24 -5 42 1 42 14 0 14 -68 39 -112 41 -64 4 -75 6
-75 13 0 5 12 8 28 6 15 -1 27 -3 27 -4 0 -6 118 -4 122 2 2 5 10 5 16 2 7 -4
5 1 -3 10 -17 18 -42 22 -176 32 -59 4 -93 3 -97 -3z m33 -93 c0 -5 -7 -7 -15
-4 -8 4 -15 8 -15 10 0 2 7 4 15 4 8 0 15 -4 15 -10z m-54 -92 c9 -10 -69 12
-80 22 -5 5 10 3 32 -3 22 -7 44 -15 48 -19z"/>
<path d="M948 1795 c-3 -3 -53 -12 -111 -20 -115 -15 -127 -19 -127 -41 0 -12
28 -20 55 -14 10 2 53 8 93 14 12 2 22 0 22 -4 0 -3 -30 -12 -67 -19 -73 -15
-94 -25 -87 -45 3 -9 59 -15 59 -6 0 1 11 3 25 4 14 2 43 9 64 16 47 15 101
21 89 10 -4 -5 -25 -11 -46 -14 -21 -3 -46 -10 -55 -15 -9 -4 -41 -14 -70 -21
-28 -6 -55 -17 -59 -23 -8 -14 27 -39 41 -28 11 8 93 32 108 32 4 0 26 6 49
14 50 18 49 18 49 4 0 -5 -3 -8 -7 -6 -5 3 -19 0 -33 -6 -14 -5 -34 -12 -44
-14 -11 -2 -24 -7 -30 -12 -6 -4 -32 -14 -58 -20 -29 -9 -48 -20 -51 -31 -4
-16 1 -18 32 -15 20 2 53 11 74 20 20 8 37 13 37 10 0 -2 20 4 45 15 25 11 45
16 45 12 0 -6 -81 -41 -192 -81 -16 -6 -28 -15 -28 -20 0 -11 25 -32 32 -26 2
3 33 15 69 29 35 13 88 33 117 45 70 28 66 19 -5 -14 -32 -15 -79 -38 -105
-51 -27 -13 -48 -21 -48 -17 0 3 -7 0 -15 -7 -23 -19 -19 -41 8 -37 28 5 54
15 192 78 81 37 90 40 82 32 -8 -7 -129 -71 -213 -112 -54 -26 -73 -48 -49
-57 11 -5 52 11 113 42 52 27 98 49 101 48 3 0 12 6 19 13 7 7 20 13 28 13 8
0 14 5 14 10 0 6 6 10 14 10 22 0 29 19 15 36 -11 13 -10 18 4 25 12 7 15 17
11 35 -4 14 -2 24 5 24 6 0 11 7 11 16 0 13 -7 15 -32 10 -31 -5 -32 -5 -10 7
21 12 22 15 7 27 -12 10 -21 11 -43 1 -26 -12 -26 -12 -9 7 17 19 17 20 -5 27
-13 4 -26 7 -29 6 -4 0 -5 8 -2 19 4 17 1 19 -31 16 -20 -2 -36 0 -36 5 0 5 9
9 20 9 18 0 30 29 13 31 -5 0 -20 3 -34 5 -14 2 -28 2 -31 -1z m2 -55 c-33
-11 -69 -12 -53 -2 7 4 27 8 45 9 30 1 31 1 8 -7z m76 -32 c4 -7 4 -10 -1 -6
-4 4 -16 3 -26 -3 -12 -6 -19 -6 -19 0 0 5 8 12 18 14 9 3 18 5 19 6 1 0 5 -5
9 -11z m34 -42 c0 -2 -7 -6 -15 -10 -8 -3 -15 -1 -15 4 0 6 7 10 15 10 8 0 15
-2 15 -4z m-46 -18 c-3 -4 -9 -8 -15 -8 -5 0 -9 4 -9 8 0 5 7 9 15 9 8 0 12
-4 9 -9z m21 -48 c-27 -12 -43 -12 -25 0 8 5 22 9 30 9 10 0 8 -3 -5 -9z m80
-20 c-27 -12 -43 -12 -25 0 8 5 22 9 30 9 10 0 8 -3 -5 -9z m-45 -20 c0 -5 -2
-10 -4 -10 -3 0 -8 5 -11 10 -3 6 -1 10 4 10 6 0 11 -4 11 -10z"/>
<path d="M1104 1466 c-12 -6 -28 -17 -35 -23 -8 -6 -18 -11 -22 -12 -21 -1
-177 -98 -183 -114 -9 -29 4 -33 39 -13 18 10 57 32 87 48 30 17 64 37 75 44
31 22 41 16 12 -6 -14 -11 -30 -20 -35 -20 -6 0 -12 -3 -14 -8 -1 -4 -28 -23
-58 -42 -63 -40 -80 -54 -80 -69 0 -22 44 -10 90 24 26 19 52 35 58 35 5 0 13
7 16 16 3 8 10 12 16 9 5 -3 10 -1 10 4 0 6 7 11 15 11 9 0 18 7 21 15 4 8 10
13 14 10 10 -6 22 24 14 37 -3 5 -12 7 -20 4 -8 -3 -14 -1 -14 4 0 5 9 12 21
15 11 4 19 14 17 23 -4 20 -18 23 -44 8z"/>
<path d="M1747 1399 c-28 -16 -47 -68 -35 -94 13 -29 56 -52 91 -50 16 1 27
-3 27 -10 0 -19 -38 -25 -51 -9 -15 18 -43 18 -58 1 -17 -21 29 -59 72 -59 77
0 110 36 112 120 1 46 -3 58 -26 83 -22 24 -35 29 -71 29 -23 0 -51 -5 -61
-11z m90 -68 c-5 -36 -50 -38 -55 -2 -4 27 12 41 39 34 14 -4 18 -12 16 -32z"/>
<path d="M1958 1400 c-20 -5 -23 -13 -26 -67 -3 -59 -3 -62 20 -61 13 1 28 5
33 9 6 4 21 6 35 5 20 -1 25 -6 26 -29 2 -43 -33 -58 -62 -26 -18 20 -49 25
-59 10 -9 -16 16 -59 39 -65 36 -10 100 -6 117 7 34 26 44 72 25 118 -9 21
-44 36 -78 33 -35 -3 -47 13 -15 21 13 4 27 5 33 4 5 -1 21 -1 37 0 20 1 27 6
27 21 0 15 -7 20 -27 21 -16 0 -45 1 -65 2 -20 1 -47 0 -60 -3z"/>
<path d="M2198 1402 c-55 -7 -87 -91 -35 -88 12 0 31 11 42 24 13 15 26 21 36
17 27 -10 11 -37 -46 -80 -62 -46 -81 -77 -60 -95 21 -18 165 -14 184 5 13 12
11 15 -13 25 -15 5 -31 8 -36 5 -4 -3 -18 -1 -31 3 -21 8 -21 9 12 32 62 44
81 73 69 105 -15 39 -57 56 -122 47z"/>
<path d="M1588 1380 c-21 -11 -38 -23 -38 -25 0 -3 11 -10 25 -15 18 -7 25
-17 26 -37 1 -16 2 -47 3 -70 1 -49 13 -64 41 -53 19 7 20 17 20 111 0 96 -2
104 -20 106 -11 1 -37 -6 -57 -17z"/>
<path d="M2801 1376 c-9 -11 -4 -20 26 -45 21 -17 43 -31 50 -31 7 0 13 -4 13
-10 0 -5 6 -10 13 -10 6 0 23 -9 37 -20 29 -23 60 -26 60 -7 0 16 -32 47 -48
47 -7 0 -12 5 -12 10 0 6 -6 10 -14 10 -8 0 -21 6 -28 13 -7 7 -29 23 -49 35
-31 19 -38 20 -48 8z"/>
<path d="M1081 1325 c-30 -19 -57 -38 -60 -42 -3 -5 -25 -21 -48 -37 -40 -27
-53 -49 -35 -60 10 -6 122 63 122 75 0 5 7 9 15 9 8 0 15 5 15 10 0 6 6 10 14
10 8 0 16 7 20 15 3 8 13 15 21 15 18 0 17 31 0 37 -6 2 -35 -13 -64 -32z"/>
<path d="M2790 1320 c-10 -6 -4 -17 23 -43 19 -19 45 -38 56 -42 12 -3 21 -10
21 -14 0 -3 13 -14 29 -24 23 -14 31 -14 40 -4 12 15 -2 29 -95 93 -40 27 -66
39 -74 34z"/>
<path d="M1127 1292 c-15 -9 -27 -20 -27 -24 0 -5 -4 -8 -9 -8 -5 0 -24 -13
-43 -29 -18 -16 -44 -38 -57 -49 -17 -13 -22 -24 -18 -37 7 -16 8 -16 35 1 50
33 160 125 165 139 9 21 -16 25 -46 7z"/>
<path d="M2766 1273 c-15 -15 3 -38 74 -94 54 -43 77 -52 83 -35 6 14 -21 42
-88 93 -53 39 -61 44 -69 36z"/>
<path d="M1124 1218 c-26 -24 -63 -57 -82 -75 -21 -20 -32 -38 -29 -48 4 -8
10 -15 14 -15 16 0 168 144 168 159 0 29 -25 22 -71 -21z"/>
<path d="M2735 1209 c-4 -6 16 -33 45 -60 66 -62 84 -73 99 -55 9 10 -2 26
-50 70 -61 56 -82 66 -94 45z"/>
<path d="M1123 1135 c-69 -70 -82 -95 -48 -95 14 0 155 135 155 149 0 5 -7 12
-16 15 -11 4 -39 -17 -91 -69z"/>
<path d="M2700 1157 c0 -18 98 -117 116 -117 34 0 24 30 -26 79 -50 49 -90 66
-90 38z"/>
<path d="M1198 1126 c-56 -54 -99 -108 -95 -119 7 -23 25 -16 63 24 21 23 48
51 60 63 52 53 26 84 -28 32z"/>
<path d="M2670 1112 c0 -10 9 -28 20 -40 11 -12 20 -25 20 -29 0 -9 62 -53 73
-53 21 0 1 41 -42 88 -51 55 -71 64 -71 34z"/>
<path d="M1252 1100 c-32 -30 -102 -125 -102 -138 0 -18 40 -14 46 3 4 8 19
29 35 47 55 58 70 85 56 97 -10 8 -19 6 -35 -9z"/>
<path d="M1274 1037 c-16 -23 -38 -54 -51 -68 -15 -16 -21 -32 -17 -42 12 -31
26 -21 78 56 37 54 56 70 56 47 0 -5 -5 -10 -11 -10 -5 0 -7 -4 -4 -10 3 -5 2
-10 -2 -10 -5 0 -17 -16 -27 -35 -11 -19 -23 -35 -28 -35 -5 0 -7 -4 -3 -9 3
-5 1 -12 -5 -16 -16 -10 -11 -25 8 -25 22 0 41 20 72 78 13 23 30 42 39 42 11
0 9 -5 -7 -22 -11 -13 -20 -25 -20 -28 1 -3 -9 -25 -21 -49 -18 -35 -20 -45
-9 -52 16 -11 44 21 82 97 22 44 26 58 16 64 -7 5 -19 6 -27 3 -7 -3 -13 1
-13 10 0 9 -10 17 -22 19 -13 2 -23 9 -23 17 0 31 -34 18 -61 -22z"/>
<path d="M2620 1073 c0 -11 30 -52 65 -90 59 -65 78 -25 20 42 -19 22 -35 43
-35 47 0 5 -11 8 -25 8 -14 0 -25 -3 -25 -7z"/>
<path d="M1974 1053 c-4 -14 -11 -19 -25 -16 -20 6 -23 -4 -19 -59 1 -16 -3
-28 -9 -28 -7 0 -9 11 -7 24 6 33 -19 55 -32 29 -5 -10 -8 -28 -6 -40 2 -12
-1 -25 -6 -28 -7 -4 -9 3 -6 19 3 14 0 29 -6 32 -10 7 -32 -10 -34 -27 -1 -5
-2 -15 -3 -21 -1 -7 -7 -2 -12 11 -7 19 -12 21 -24 11 -7 -6 -22 -11 -32 -10
-35 4 -43 0 -43 -21 0 -12 -6 -47 -14 -78 -24 -94 -27 -138 -11 -145 18 -6 35
22 40 67 2 18 7 43 10 57 4 14 7 31 7 38 1 6 5 12 10 12 5 0 7 -14 3 -31 -17
-78 -22 -144 -11 -151 17 -11 31 -4 32 18 1 10 3 21 4 24 1 3 4 21 6 40 2 19
5 43 6 53 1 9 6 17 10 17 4 0 6 -38 3 -85 -4 -69 -2 -85 10 -85 26 0 28 8 39
173 6 107 17 72 14 -48 -3 -113 -2 -120 17 -120 16 0 20 8 22 55 4 72 5 80 14
80 5 0 8 -28 7 -63 -2 -69 5 -89 27 -80 12 4 14 19 11 64 -3 60 7 87 18 46 3
-12 6 -41 6 -64 0 -36 3 -43 20 -43 15 0 20 7 21 28 1 15 0 32 -1 37 -7 23 -5
134 1 127 4 -4 10 -41 14 -82 3 -41 8 -83 11 -92 6 -19 33 -25 35 -8 5 34 3
93 -2 96 -4 2 -5 17 -4 34 1 16 -1 30 -5 30 -9 0 -7 47 3 56 4 4 7 -1 7 -12 0
-10 7 -58 16 -106 14 -76 19 -88 36 -88 18 0 19 5 13 40 -4 22 -8 50 -10 63
-2 12 -6 42 -9 66 -4 24 -9 48 -12 52 -3 5 0 9 5 9 6 0 11 -3 12 -7 3 -31 8
-56 19 -108 7 -33 13 -65 14 -71 3 -20 28 -44 38 -38 11 7 5 54 -18 154 -13
59 -15 85 -4 69 5 -9 12 -27 14 -40 3 -13 5 -25 7 -26 2 -4 20 -78 24 -103 0
-3 7 -16 14 -29 11 -20 15 -21 27 -10 11 12 11 21 -1 62 -8 26 -12 47 -10 47
2 0 -3 16 -11 35 -8 19 -13 38 -12 42 2 12 -14 47 -26 55 -5 4 -18 2 -28 -3
-14 -8 -18 -6 -18 7 0 12 -6 15 -26 11 -17 -3 -28 0 -31 10 -3 8 -14 13 -25
10 -11 -3 -22 2 -28 14 -6 10 -18 19 -26 19 -9 0 -12 -5 -8 -12 4 -7 3 -8 -5
-4 -6 4 -9 11 -6 15 2 5 -5 17 -16 27 -19 17 -20 17 -25 -3z m58 -115 c1 -26
-1 -43 -5 -39 -5 5 -10 30 -12 56 -1 26 1 43 5 38 4 -4 10 -29 12 -55z m-52
-20 c0 -39 -2 -69 -5 -66 -9 9 -12 138 -3 138 4 0 8 -32 8 -72z m97 56 c-3 -4
-2 -15 4 -25 5 -11 6 -19 1 -19 -6 0 -12 9 -15 19 -5 19 0 31 11 31 3 0 2 -3
-1 -6z m-147 -59 c0 -14 -4 -25 -9 -25 -5 0 -8 11 -8 25 0 14 3 25 8 25 5 0 9
-11 9 -25z m-163 -10 c0 -8 -4 -15 -9 -15 -4 0 -8 7 -8 15 0 8 4 15 8 15 5 0
9 -7 9 -15z m53 -19 c0 -8 -4 -17 -9 -21 -6 -3 -9 4 -8 15 1 23 17 28 17 6z
m110 -31 c0 -14 -4 -25 -9 -25 -5 0 -8 11 -8 25 0 14 3 25 8 25 5 0 9 -11 9
-25z"/>
<path d="M2576 1035 c-3 -9 -14 -15 -23 -13 -30 5 -25 -29 13 -86 23 -35 44
-56 55 -56 26 0 24 6 -16 73 -38 63 -40 67 -26 67 5 0 12 -8 15 -18 8 -24 71
-92 85 -92 21 0 11 41 -19 73 -17 18 -33 40 -36 50 -7 21 -40 23 -48 2z"/>
<path d="M2483 984 c-5 -14 19 -73 42 -101 35 -42 37 -45 48 -34 12 12 -10 66
-42 104 -8 9 -11 17 -7 17 4 0 1 7 -8 15 -19 19 -25 19 -33 -1z"/>
<path d="M1431 958 c-8 -18 -17 -35 -20 -38 -3 -3 -16 -23 -28 -46 -22 -41
-18 -72 8 -62 16 6 84 135 84 158 0 29 -30 21 -44 -12z"/>
<path d="M1504 972 c-6 -4 -19 -25 -28 -47 -10 -22 -25 -56 -34 -75 -19 -41
-21 -62 -7 -67 18 -5 31 11 60 80 15 37 32 67 36 67 4 0 1 -16 -7 -35 -8 -19
-11 -35 -8 -35 4 0 2 -6 -3 -12 -17 -22 -31 -74 -24 -87 13 -21 38 11 67 89
16 41 27 78 26 83 -1 4 4 7 11 7 8 0 8 3 -2 9 -9 6 -22 6 -32 0 -22 -11 -32
-12 -25 0 8 12 -17 31 -30 23z"/>
<path d="M2424 965 c-3 -8 1 -26 10 -40 9 -13 16 -31 16 -40 0 -8 4 -15 8 -15
4 0 13 -13 19 -30 12 -31 19 -35 41 -22 9 7 4 25 -23 77 -37 74 -61 97 -71 70z"/>
<path d="M2370 958 c-14 -5 -20 -12 -14 -16 6 -4 23 -38 39 -75 28 -67 38 -80
63 -83 16 -3 15 27 -2 51 -7 11 -14 24 -14 28 0 4 -11 29 -24 56 -21 45 -25
48 -48 39z"/>
<path d="M2258 953 c-15 -4 -16 -8 -6 -26 6 -12 10 -22 9 -22 -6 0 41 -144 52
-159 8 -11 17 -13 27 -6 13 8 13 14 2 42 -8 18 -20 55 -27 82 -12 42 -12 47 0
35 8 -8 16 -25 18 -39 9 -46 40 -100 59 -100 10 0 18 3 18 8 0 15 -51 147 -66
169 -15 24 -34 23 -34 -3 0 -8 -4 -14 -10 -14 -5 0 -10 9 -10 20 0 20 -2 21
-32 13z"/>
<path d="M1598 922 c-35 -87 -57 -176 -46 -183 15 -10 50 20 44 37 -2 6 1 22
8 35 10 20 32 88 39 123 1 5 -6 10 -16 12 -12 1 -22 -7 -29 -24z"/>
<path d="M1661 936 c-7 -8 -13 -25 -15 -38 -1 -13 -6 -29 -10 -36 -4 -7 -5
-12 -1 -12 3 0 -2 -16 -10 -36 -19 -46 -19 -90 -1 -97 15 -6 33 31 43 88 3 17
9 38 14 48 5 9 7 17 4 17 -3 0 -1 9 5 20 11 21 5 60 -9 60 -5 0 -14 -6 -20
-14z"/>
<path d="M1140 833 c-13 -3 -62 -75 -172 -251 -20 -32 -8 -57 34 -67 24 -6 31
0 77 72 l51 78 -4 -115 c-3 -107 -2 -115 18 -131 41 -32 70 -28 86 11 7 16 15
30 19 30 3 0 17 20 31 45 14 25 28 45 32 45 5 0 8 6 8 13 0 7 9 23 20 35 12
12 18 22 14 22 -4 0 0 8 8 18 25 28 26 46 5 65 -34 30 -59 21 -90 -31 -16 -26
-37 -58 -48 -72 l-20 -25 4 108 c5 107 4 109 -22 133 -14 13 -28 23 -31 23 -3
-1 -12 -3 -20 -6z"/>
<path d="M2638 768 c-22 -22 -22 -26 3 -123 11 -44 22 -92 24 -106 2 -14 9
-39 16 -55 6 -16 13 -40 15 -53 10 -50 28 -54 67 -15 19 19 24 31 18 43 -4 9
-11 31 -14 48 -6 29 -3 35 30 58 34 23 39 23 58 10 11 -9 33 -22 49 -29 26
-12 31 -11 52 7 13 11 24 26 24 33 0 15 -288 201 -310 201 -8 -1 -23 -9 -32
-19z m122 -152 c-12 -12 -25 0 -35 34 l-7 25 26 -24 c18 -17 23 -28 16 -35z"/>
<path d="M1554 607 c-4 -12 -8 -31 -10 -42 -1 -11 -3 -20 -4 -20 -2 0 -11 -38
-13 -60 -2 -11 -6 -26 -10 -32 -5 -7 -6 -13 -4 -13 3 0 1 -17 -3 -37 -19 -84
50 -144 170 -148 88 -4 126 32 145 135 9 51 22 112 25 120 5 13 -3 46 -14 52
-16 11 -64 10 -70 -1 -6 -10 -35 -139 -41 -183 -10 -73 -102 -84 -128 -16 -3
10 -2 20 3 23 5 3 7 14 5 25 -2 11 -1 20 4 20 4 0 8 10 8 23 1 12 8 50 15 84
16 68 18 65 -44 83 -23 7 -28 5 -34 -13z"/>
<path d="M2205 596 c-9 -13 -15 -28 -14 -32 1 -5 0 -11 -1 -14 -1 -3 -4 -16
-5 -30 -1 -14 -10 -68 -20 -120 -10 -52 -18 -108 -19 -125 -1 -28 2 -30 34
-30 38 0 60 27 60 78 0 21 7 30 27 38 38 14 74 8 87 -16 33 -60 41 -65 89 -52
36 10 34 24 -12 93 -21 33 -64 98 -95 147 -50 76 -61 87 -86 87 -20 0 -35 -8
-45 -24z m83 -158 c-22 -13 -28 -9 -26 17 2 23 3 23 20 8 14 -13 16 -18 6 -25z"/>
</g>
</svg>
